<svg width="118" height="41" viewBox="0 0 118 41" fill="none" xmlns="http://www.w3.org/2000/svg">
<rect y="3" width="76" height="35" fill="#5C5F61"/>
<path d="M117.95 20.35L75.2374 37.9736V2.72638L117.95 20.35Z" fill="#5C5F61"/>
<path d="M22.7045 14.42C24.2378 14.42 25.3045 14.8 25.9045 15.56C26.5045 16.3067 26.8045 17.1333 26.8045 18.04C26.8045 18.84 26.5778 19.5733 26.1245 20.24C25.6845 20.9067 24.9778 21.64 24.0045 22.44L22.1045 24.02H27.0445L27.3845 26H18.6845V24.26L22.6045 20.82C23.3511 20.1667 23.8511 19.6467 24.1045 19.26C24.3578 18.86 24.4845 18.4533 24.4845 18.04C24.4845 17.6133 24.3245 17.2533 24.0045 16.96C23.6845 16.6667 23.2378 16.52 22.6645 16.52C22.1711 16.52 21.6045 16.7 20.9645 17.06C20.3245 17.42 19.9845 17.6067 19.9445 17.62L18.8245 15.86C19.1978 15.5667 19.7045 15.2533 20.3445 14.92C20.9845 14.5867 21.7711 14.42 22.7045 14.42ZM29.2607 20.3C29.2607 18.4733 29.754 17.04 30.7407 16C31.7274 14.9467 32.9607 14.42 34.4407 14.42C35.934 14.42 37.1607 14.9267 38.1207 15.94C39.094 16.9533 39.5807 18.3933 39.5807 20.26C39.5807 22.1 39.0807 23.56 38.0807 24.64C37.094 25.72 35.874 26.26 34.4207 26.26C32.954 26.26 31.7274 25.74 30.7407 24.7C29.754 23.6467 29.2607 22.18 29.2607 20.3ZM31.6407 20.24C31.6407 21.48 31.914 22.4267 32.4607 23.08C33.0207 23.72 33.6807 24.04 34.4407 24.04C35.174 24.04 35.8207 23.72 36.3807 23.08C36.954 22.44 37.2407 21.5267 37.2407 20.34C37.2407 19.1133 36.9607 18.1867 36.4007 17.56C35.854 16.9333 35.194 16.62 34.4207 16.62C33.674 16.62 33.0207 16.9333 32.4607 17.56C31.914 18.1733 31.6407 19.0667 31.6407 20.24ZM41.9821 24.2H44.1621V17.66L43.1221 18.26L41.9021 16.5L45.0221 14.68H46.7621V24.2H48.3021L48.5221 26H42.1821L41.9821 24.2ZM59.8884 22.3C59.8884 23.38 59.475 24.3133 58.6484 25.1C57.835 25.8733 56.7084 26.26 55.2684 26.26C53.8017 26.26 52.655 25.8733 51.8284 25.1C51.015 24.3133 50.6084 23.38 50.6084 22.3C50.6084 21.62 50.8417 20.98 51.3084 20.38C51.775 19.78 52.2884 19.3867 52.8484 19.2C52.3417 18.9733 51.9284 18.6333 51.6084 18.18C51.2884 17.7133 51.1284 17.2 51.1284 16.64C51.1284 15.6933 51.495 14.8733 52.2284 14.18C52.975 13.4867 53.9884 13.14 55.2684 13.14C56.535 13.14 57.535 13.4867 58.2684 14.18C59.015 14.8733 59.3884 15.6933 59.3884 16.64C59.3884 17.2 59.2217 17.7133 58.8884 18.18C58.5684 18.6333 58.155 18.9733 57.6484 19.2C58.2084 19.3867 58.7217 19.78 59.1884 20.38C59.655 20.98 59.8884 21.62 59.8884 22.3ZM53.4484 16.68C53.4484 17.12 53.6017 17.48 53.9084 17.76C54.2284 18.0267 54.6817 18.2067 55.2684 18.3C55.855 18.2067 56.295 18.02 56.5884 17.74C56.895 17.46 57.0484 17.0933 57.0484 16.64C57.0484 16.2667 56.875 15.9467 56.5284 15.68C56.1817 15.4 55.7484 15.26 55.2284 15.26C54.735 15.26 54.315 15.4 53.9684 15.68C53.6217 15.96 53.4484 16.2933 53.4484 16.68ZM52.9484 22.34C52.9484 22.9133 53.1817 23.36 53.6484 23.68C54.1284 24 54.6617 24.16 55.2484 24.16C55.8217 24.16 56.3484 24 56.8284 23.68C57.3217 23.36 57.5684 22.9133 57.5684 22.34C57.5684 21.86 57.3684 21.42 56.9684 21.02C56.5817 20.62 56.015 20.36 55.2684 20.24C54.495 20.36 53.915 20.62 53.5284 21.02C53.1417 21.42 52.9484 21.86 52.9484 22.34Z" fill="#F8F9F8"/>
</svg>
