<svg width="118" height="41" viewBox="0 0 118 41" fill="none" xmlns="http://www.w3.org/2000/svg">
<rect y="3" width="76" height="35" fill="#5C5F61"/>
<path d="M117.95 20.35L75.2374 37.9736V2.72638L117.95 20.35Z" fill="#5C5F61"/>
<path d="M22.172 15.42C23.7053 15.42 24.772 15.8 25.372 16.56C25.972 17.3067 26.272 18.1333 26.272 19.04C26.272 19.84 26.0453 20.5733 25.592 21.24C25.152 21.9067 24.4453 22.64 23.472 23.44L21.572 25.02H26.512L26.852 27H18.152V25.26L22.072 21.82C22.8187 21.1667 23.3187 20.6467 23.572 20.26C23.8253 19.86 23.952 19.4533 23.952 19.04C23.952 18.6133 23.792 18.2533 23.472 17.96C23.152 17.6667 22.7053 17.52 22.132 17.52C21.6387 17.52 21.072 17.7 20.432 18.06C19.792 18.42 19.452 18.6067 19.412 18.62L18.292 16.86C18.6653 16.5667 19.172 16.2533 19.812 15.92C20.452 15.5867 21.2387 15.42 22.172 15.42ZM28.7282 21.3C28.7282 19.4733 29.2216 18.04 30.2082 17C31.1949 15.9467 32.4282 15.42 33.9082 15.42C35.4016 15.42 36.6282 15.9267 37.5882 16.94C38.5616 17.9533 39.0482 19.3933 39.0482 21.26C39.0482 23.1 38.5482 24.56 37.5482 25.64C36.5616 26.72 35.3416 27.26 33.8882 27.26C32.4216 27.26 31.1949 26.74 30.2082 25.7C29.2216 24.6467 28.7282 23.18 28.7282 21.3ZM31.1082 21.24C31.1082 22.48 31.3816 23.4267 31.9282 24.08C32.4882 24.72 33.1482 25.04 33.9082 25.04C34.6416 25.04 35.2882 24.72 35.8482 24.08C36.4216 23.44 36.7082 22.5267 36.7082 21.34C36.7082 20.1133 36.4282 19.1867 35.8682 18.56C35.3216 17.9333 34.6616 17.62 33.8882 17.62C33.1416 17.62 32.4882 17.9333 31.9282 18.56C31.3816 19.1733 31.1082 20.0667 31.1082 21.24ZM44.7696 15.42C46.303 15.42 47.3696 15.8 47.9696 16.56C48.5696 17.3067 48.8696 18.1333 48.8696 19.04C48.8696 19.84 48.643 20.5733 48.1896 21.24C47.7496 21.9067 47.043 22.64 46.0696 23.44L44.1696 25.02H49.1096L49.4496 27H40.7496V25.26L44.6696 21.82C45.4163 21.1667 45.9163 20.6467 46.1696 20.26C46.423 19.86 46.5496 19.4533 46.5496 19.04C46.5496 18.6133 46.3896 18.2533 46.0696 17.96C45.7496 17.6667 45.303 17.52 44.7296 17.52C44.2363 17.52 43.6696 17.7 43.0296 18.06C42.3896 18.42 42.0496 18.6067 42.0096 18.62L40.8896 16.86C41.263 16.5667 41.7696 16.2533 42.4096 15.92C43.0496 15.5867 43.8363 15.42 44.7696 15.42ZM51.6059 25.2H53.7859V18.66L52.7459 19.26L51.5259 17.5L54.6459 15.68H56.3859V25.2H57.9259L58.1459 27H51.8059L51.6059 25.2Z" fill="#F8F9F8"/>
</svg>
