<svg width="66" height="68" viewBox="0 0 66 68" fill="none" xmlns="http://www.w3.org/2000/svg">
<g filter="url(#filter0_d_51_91)">
<mask id="path-1-outside-1_51_91" maskUnits="userSpaceOnUse" x="3" y="3" width="60" height="62" fill="black">
<rect fill="white" x="3" y="3" width="60" height="62"/>
<path d="M12.1016 52.3125L27.4531 6.41406H38.4297L54.3672 52.5469C56.6068 53.3542 58.1693 54.2917 59.0547 55.3594L58.2734 62H39.5625L38.7422 55.3594C39.3932 54.526 40.6823 53.7318 42.6094 52.9766L40.4219 46.2578H24.4453L22.4141 52.7031C24.2891 53.4583 25.6823 54.3438 26.5938 55.3594L25.7734 62H7.53125L6.75 55.3594C7.73958 54.1354 9.52344 53.1198 12.1016 52.3125ZM33 18.9531L32.9219 17.5859H31.7891C31.7891 20.8151 31.125 24.6042 29.7969 28.9531L26.6719 38.875H38.1172L35.0703 29.1094C33.8464 25.3594 33.1562 21.974 33 18.9531Z"/>
</mask>
<path d="M12.1016 52.3125L12.998 55.1754L14.4605 54.7175L14.9466 53.2641L12.1016 52.3125ZM27.4531 6.41406V3.41406H25.2932L24.608 5.46247L27.4531 6.41406ZM38.4297 6.41406L41.2652 5.43446L40.5673 3.41406H38.4297V6.41406ZM54.3672 52.5469L51.5316 53.5265L52.0001 54.8826L53.3499 55.3691L54.3672 52.5469ZM59.0547 55.3594L62.0341 55.7099L62.1843 54.4336L61.364 53.4444L59.0547 55.3594ZM58.2734 62V65H60.9412L61.2529 62.3505L58.2734 62ZM39.5625 62L36.5851 62.3678L36.9103 65H39.5625V62ZM38.7422 55.3594L36.3781 53.5124L35.6123 54.4927L35.7648 55.7272L38.7422 55.3594ZM42.6094 52.9766L43.704 55.7697L46.3377 54.7376L45.462 52.0478L42.6094 52.9766ZM40.4219 46.2578L43.2745 45.3291L42.6001 43.2578H40.4219V46.2578ZM24.4453 46.2578V43.2578H22.2453L21.584 45.3561L24.4453 46.2578ZM22.4141 52.7031L19.5528 51.8014L18.7185 54.4488L21.2932 55.4859L22.4141 52.7031ZM26.5938 55.3594L29.5711 55.7272L29.7385 54.3719L28.8265 53.3556L26.5938 55.3594ZM25.7734 62V65H28.4257L28.7508 62.3678L25.7734 62ZM7.53125 62L4.5518 62.3505L4.8635 65H7.53125V62ZM6.75 55.3594L4.41711 53.4732L3.62296 54.4554L3.77055 55.7099L6.75 55.3594ZM33 18.9531L35.996 18.7982L35.9956 18.7901L35.9951 18.782L33 18.9531ZM32.9219 17.5859L35.917 17.4148L35.7553 14.5859H32.9219V17.5859ZM31.7891 17.5859V14.5859H28.7891V17.5859H31.7891ZM29.7969 28.9531L32.6583 29.8544L32.6622 29.8419L32.6661 29.8293L29.7969 28.9531ZM26.6719 38.875L23.8104 37.9738L22.5817 41.875H26.6719V38.875ZM38.1172 38.875V41.875H42.1958L40.981 37.9815L38.1172 38.875ZM35.0703 29.1094L37.9342 28.2159L37.9283 28.1972L37.9222 28.1785L35.0703 29.1094ZM14.9466 53.2641L30.2982 7.36565L24.608 5.46247L9.25648 51.3609L14.9466 53.2641ZM27.4531 9.41406H38.4297V3.41406H27.4531V9.41406ZM35.5941 7.39366L51.5316 53.5265L57.2027 51.5673L41.2652 5.43446L35.5941 7.39366ZM53.3499 55.3691C55.4022 56.1089 56.3668 56.8178 56.7454 57.2744L61.364 53.4444C59.9718 51.7655 57.8114 50.5994 55.3845 49.7246L53.3499 55.3691ZM56.0752 55.0089L55.294 61.6495L61.2529 62.3505L62.0341 55.7099L56.0752 55.0089ZM58.2734 59H39.5625V65H58.2734V59ZM42.5399 61.6322L41.7196 54.9916L35.7648 55.7272L36.5851 62.3678L42.5399 61.6322ZM41.1063 57.2063C41.2377 57.0381 41.8816 56.4839 43.704 55.7697L41.5148 50.1834C39.483 50.9796 37.5488 52.014 36.3781 53.5124L41.1063 57.2063ZM45.462 52.0478L43.2745 45.3291L37.5693 47.1866L39.7568 53.9053L45.462 52.0478ZM40.4219 43.2578H24.4453V49.2578H40.4219V43.2578ZM21.584 45.3561L19.5528 51.8014L25.2753 53.6049L27.3066 47.1595L21.584 45.3561ZM21.2932 55.4859C22.931 56.1455 23.8673 56.8129 24.361 57.3631L28.8265 53.3556C27.4973 51.8746 25.6471 50.7711 23.5349 49.9204L21.2932 55.4859ZM23.6164 54.9916L22.7961 61.6322L28.7508 62.3678L29.5711 55.7272L23.6164 54.9916ZM25.7734 59H7.53125V65H25.7734V59ZM10.5107 61.6495L9.72945 55.0089L3.77055 55.7099L4.5518 62.3505L10.5107 61.6495ZM9.08289 57.2455C9.51905 56.7061 10.6257 55.9183 12.998 55.1754L11.2051 49.4496C8.42118 50.3213 5.96012 51.5648 4.41711 53.4732L9.08289 57.2455ZM35.9951 18.782L35.917 17.4148L29.9268 17.7571L30.0049 19.1243L35.9951 18.782ZM32.9219 14.5859H31.7891V20.5859H32.9219V14.5859ZM28.7891 17.5859C28.7891 20.4245 28.2015 23.9058 26.9277 28.0769L32.6661 29.8293C34.0485 25.3025 34.7891 21.2057 34.7891 17.5859H28.7891ZM26.9354 28.0519L23.8104 37.9738L29.5333 39.7762L32.6583 29.8544L26.9354 28.0519ZM26.6719 41.875H38.1172V35.875H26.6719V41.875ZM40.981 37.9815L37.9342 28.2159L32.2065 30.0029L35.2533 39.7685L40.981 37.9815ZM37.9222 28.1785C36.7569 24.6081 36.1352 21.4893 35.996 18.7982L30.004 19.1081C30.1773 22.4587 30.9358 26.1106 32.2184 30.0402L37.9222 28.1785Z" fill="#FFC86A" mask="url(#path-1-outside-1_51_91)"/>
</g>
<defs>
<filter id="filter0_d_51_91" x="0.75" y="0.414062" width="64.3047" height="67.5859" filterUnits="userSpaceOnUse" color-interpolation-filters="sRGB">
<feFlood flood-opacity="0" result="BackgroundImageFix"/>
<feColorMatrix in="SourceAlpha" type="matrix" values="0 0 0 0 0 0 0 0 0 0 0 0 0 0 0 0 0 0 127 0" result="hardAlpha"/>
<feOffset/>
<feGaussianBlur stdDeviation="3"/>
<feComposite in2="hardAlpha" operator="out"/>
<feColorMatrix type="matrix" values="0 0 0 0 1 0 0 0 0 0.784314 0 0 0 0 0.415686 0 0 0 0.5 0"/>
<feBlend mode="normal" in2="BackgroundImageFix" result="effect1_dropShadow_51_91"/>
<feBlend mode="normal" in="SourceGraphic" in2="effect1_dropShadow_51_91" result="shape"/>
</filter>
</defs>
</svg>
