<svg width="42" height="48" viewBox="0 0 42 48" fill="none" xmlns="http://www.w3.org/2000/svg">
<g clip-path="url(#clip0_102_26)" filter="url(#filter0_d_102_26)">
<path d="M36 16.6667C36 28.3334 21 38.3334 21 38.3334C21 38.3334 6 28.3334 6 16.6667C6 12.6884 7.58035 8.87313 10.3934 6.06008C13.2064 3.24704 17.0218 1.66669 21 1.66669C24.9782 1.66669 28.7936 3.24704 31.6066 6.06008C34.4196 8.87313 36 12.6884 36 16.6667Z" stroke="#FFC86A" stroke-width="3.5" stroke-linecap="round" stroke-linejoin="round"/>
<path d="M21 21.6667C23.7614 21.6667 26 19.4281 26 16.6667C26 13.9053 23.7614 11.6667 21 11.6667C18.2386 11.6667 16 13.9053 16 16.6667C16 19.4281 18.2386 21.6667 21 21.6667Z" stroke="#FFC86A" stroke-width="3.5" stroke-linecap="round" stroke-linejoin="round"/>
</g>
<defs>
<filter id="filter0_d_102_26" x="-3" y="0" width="48" height="48" filterUnits="userSpaceOnUse" color-interpolation-filters="sRGB">
<feFlood flood-opacity="0" result="BackgroundImageFix"/>
<feColorMatrix in="SourceAlpha" type="matrix" values="0 0 0 0 0 0 0 0 0 0 0 0 0 0 0 0 0 0 127 0" result="hardAlpha"/>
<feOffset dy="4"/>
<feGaussianBlur stdDeviation="2"/>
<feComposite in2="hardAlpha" operator="out"/>
<feColorMatrix type="matrix" values="0 0 0 0 0 0 0 0 0 0 0 0 0 0 0 0 0 0 0.25 0"/>
<feBlend mode="normal" in2="BackgroundImageFix" result="effect1_dropShadow_102_26"/>
<feBlend mode="normal" in="SourceGraphic" in2="effect1_dropShadow_102_26" result="shape"/>
</filter>
<clipPath id="clip0_102_26">
<rect width="40" height="40" fill="white" transform="translate(1)"/>
</clipPath>
</defs>
</svg>
