<svg xmlns="http://www.w3.org/2000/svg" style="display: none;">
    <symbol id="icon-ubuntu" viewBox="0 0 80 80" width="80" height="80" fill="none">
        <path d="M68 0H12C5.37258 0 0 5.37258 0 12V68C0 74.6274 5.37258 80 12 80H68C74.6274 80 80 74.6274 80 68V12C80 5.37258 74.6274 0 68 0Z" fill="#E65E17"/>
        <path d="M40.3193 59.7596C51.0198 59.7596 59.6943 51.0852 59.6943 40.3846C59.6943 29.6841 51.0198 21.0096 40.3193 21.0096C29.6188 21.0096 20.9443 29.6841 20.9443 40.3846C20.9443 51.0852 29.6188 59.7596 40.3193 59.7596Z" stroke="white" stroke-width="10"/>
        <path d="M11.4062 46.7188C14.9443 46.7188 17.8125 43.8506 17.8125 40.3125C17.8125 36.7744 14.9443 33.9062 11.4062 33.9062C7.86818 33.9062 5 36.7744 5 40.3125C5 43.8506 7.86818 46.7188 11.4062 46.7188Z" fill="white" stroke="#E65E17" stroke-width="4"/>
        <path d="M52.5 70.4688C56.0381 70.4688 58.9062 67.6006 58.9062 64.0625C58.9062 60.5244 56.0381 57.6562 52.5 57.6562C48.9619 57.6562 46.0938 60.5244 46.0938 64.0625C46.0938 67.6006 48.9619 70.4688 52.5 70.4688Z" fill="white" stroke="#E65E17" stroke-width="4"/>
        <path d="M52.5 22.8125C56.0381 22.8125 58.9062 19.9443 58.9062 16.4062C58.9062 12.8682 56.0381 10 52.5 10C48.9619 10 46.0938 12.8682 46.0938 16.4062C46.0938 19.9443 48.9619 22.8125 52.5 22.8125Z" fill="white" stroke="#E65E17" stroke-width="4"/>
        <path d="M26.25 18.5938L39.0625 40.1562ZM39.0625 40.1562L25.9375 62.0312Z" fill="white"/>
        <path d="M26.25 18.5938L39.0625 40.1562M39.0625 40.1562H63.2812M39.0625 40.1562L25.9375 62.0312" stroke="#E65E17" stroke-width="4"/>
    </symbol>
    <symbol id="icon-js" viewBox="0 0 80 80" width="80" height="80">
        <path d="M75 5H5V75H75V5Z" fill="#FFCA28"/>
        <path d="M47.5 63.2197L52.6538 59.8092C53.0578 61.0782 55.6155 64.092 58.8462 64.092C62.077 64.092 63.577 62.3275 63.577 61.1575C63.577 57.9695 60.278 56.8455 58.6935 56.3057C58.435 56.2177 58.2225 56.1452 58.077 56.082C58.0023 56.0495 57.8895 56.0062 57.7448 55.951C55.9825 55.2777 49.4807 52.7937 49.4807 45.5932C49.4807 37.6625 57.1345 36.7505 58.8655 36.7505C59.9977 36.7505 65.4422 36.8892 68.1537 41.9847L63.1537 45.4745C62.0577 43.2537 60.2365 42.5202 59.1155 42.5202C56.3463 42.5202 55.7692 44.5502 55.7692 45.4745C55.7692 48.0675 58.778 49.2297 61.3182 50.211C61.983 50.4677 62.6155 50.712 63.1537 50.9665C65.923 52.275 70 54.4165 70 61.1575C70 64.534 67.168 70.0005 60.0385 70.0005C50.4615 70.0005 47.923 64.2507 47.5 63.2197Z" fill="#3E3E3E"/>
        <path d="M22.5 63.8967L27.8717 60.4882C28.2925 61.7565 29.9282 64.095 32.3012 64.095C34.6745 64.095 35.8892 61.6575 35.8892 60.4882V37.5005H42.4955V60.4882C42.6025 63.659 40.844 70.0005 33.083 70.0005C25.9475 70.0005 22.9811 65.7597 22.5 63.8967Z" fill="#3E3E3E"/>
    </symbol>
    <symbol id="icon-html" viewBox="0 0 80 80" width="80" height="80">
        <path d="M80 0L72.7118 71.9918L39.9511 80L7.28062 72.0028L0 0H80Z" fill="#E44D26"/>
        <path d="M40 73.8787L66.4724 67.4076L72.7002 5.88718H40V73.8787Z" fill="#F16529"/>
        <path d="M40.0003 40.8264H52.3329L51.1701 52.2794L40 54.9377V64.125L60.5317 59.1077L60.6822 57.6157L63.036 34.3669L63.2803 31.9955H40.0003V40.8264ZM40.0003 22.931V22.9526H64.1916L64.3923 20.9678L64.8489 16.4909L65.0882 14.1217H40.0003V22.931Z" fill="white"/>
        <path d="M25.832 23.5492H40V14.7184H14.8867L15.1263 17.0875L17.588 41.423H40V32.5921H26.7473L25.832 23.5492ZM28.0892 45.8386H18.0355L19.4385 59.7044L39.9539 64.7257L40 64.7147V55.5269L39.9561 55.5371L28.8023 52.8815L28.0892 45.8386Z" fill="#EBEBEB"/>
    </symbol>

    <symbol id="icon-css" viewBox="0 0 80 80" width="80" height="80">
        <path d="M73.3333 5.71429H40V75.7143L66.6667 68.5714L73.3333 5.71429Z" fill="#33AADD"/>
        <path d="M6.66667 71.4286L0 0H80L73.3333 71.4286L40 80L6.66667 71.4286Z" fill="#1172B8"/>
        <path d="M51.6667 41.4286H18.3333L16.6667 31.4286L43.3333 24.2857H16.6667L15 15.7143H66.6667L65 25.7143L43.3333 32.8572H63.3333L60 60L40 65.7143L20 60L18.3333 45.7143H28.3333L30 52.8572L40 55.7143L50 52.8572L51.6667 41.4286Z" fill="white"/>
    </symbol>

    <symbol id="icon-node" viewBox="0 0 80 80" width="80" height="80">
        <path d="M43.6077 0.853491C41.4237 -0.287053 38.5763 -0.281938 36.3905 0.853491C25.4428 6.46364 14.4948 12.0755 3.54511 17.683C1.41443 18.7239 -0.0226528 20.8485 0.000270304 23.0537V56.9509C-0.0151143 59.1992 1.49606 61.3443 3.68169 62.3709C6.8268 63.9246 9.88246 65.6361 13.0844 67.0863C16.7831 68.7741 21.4106 69.1472 25.1545 67.3872C28.1936 65.9286 29.5434 62.6843 29.5394 59.7029C29.564 48.516 29.5434 37.3289 29.5489 26.1417C29.6213 25.6446 29.2191 25.1132 28.6351 25.1252C27.236 25.1046 25.8351 25.1132 24.436 25.1217C23.9074 25.0755 23.3914 25.4832 23.4314 25.9766C23.4126 37.0915 23.4351 48.2098 23.42 59.3263C23.4505 60.864 22.3317 62.3418 20.7358 62.8612C17.0499 64.0609 6.52917 57.7178 6.52917 57.7178C6.14308 57.5518 5.89791 57.1629 5.93575 56.7766C5.93575 45.5932 5.93763 34.4095 5.93575 23.2277C5.88268 22.7769 6.18191 22.3709 6.62775 22.1868C17.5395 16.6097 28.4456 11.0187 39.3573 5.43818C39.7363 5.20329 40.2646 5.20401 40.6428 5.43989C51.5545 11.0187 62.4625 16.6046 73.3761 22.182C73.8234 22.3657 74.1099 22.7786 74.0644 23.2277C74.0625 34.4095 74.0681 45.5932 74.0607 56.7752C74.093 57.1709 73.8727 57.5543 73.4748 57.728C62.665 63.2749 51.732 68.6429 41.02 74.3509C40.5526 74.5998 40.0231 74.8818 39.4994 74.6075C36.6825 73.1606 33.8997 71.6575 31.092 70.1966C30.7868 70.0198 30.3982 69.9438 30.0797 70.1418C28.8209 70.7578 27.6369 71.2566 26.1914 71.7881C24.1612 72.5343 24.4856 72.8395 26.3166 73.8301C29.6 75.5555 32.8889 77.2741 36.1723 79.0012C38.3339 80.2538 41.2382 80.3429 43.4693 79.1855C54.4188 73.5823 65.365 67.9726 76.3167 62.3695C78.4964 61.3372 80.0151 59.2006 79.9998 56.9506V23.0537C80.021 20.8933 78.6388 18.8065 76.5724 17.7503C65.5865 12.1128 54.5954 6.48755 43.6077 0.853491Z" fill="#8CC84B"/>
        <path d="M60.129 26.3035C55.8314 24.1686 50.7188 24.0549 45.9431 24.334C42.493 24.6506 38.8643 25.5346 36.3508 27.8312C33.7726 30.1398 33.2114 33.8678 34.436 36.8815C35.3136 39.0112 37.5225 40.3961 39.8068 41.1286C42.7493 42.0932 45.8397 42.3915 48.9311 42.6898C51.7508 42.9618 54.5714 43.2341 57.2816 44.0121C58.3887 44.3526 59.6779 44.8738 60.017 45.9923C60.3302 47.3169 59.9868 48.8566 58.8287 49.7769C55.1499 52.4806 44.9167 52.0664 41.2819 49.9383C39.8123 49.0318 39.1791 47.4269 38.9216 45.8975C38.893 45.4209 38.4797 44.9838 37.9225 45.0201C36.5271 45.0046 35.1317 45.0081 33.7363 45.0183C33.2496 44.9803 32.7434 45.3021 32.7166 45.7635C32.4299 52.7684 39.3582 55.8221 45.8582 56.4944C49.5717 56.8229 53.3668 56.8041 57.0237 56.0641C59.7727 55.4829 62.529 54.4126 64.4213 52.4466C66.7548 50.0572 67.2136 46.4998 66.1671 43.5235C65.3671 41.3026 63.0807 39.8781 60.7434 39.1452C57.565 38.1332 53.7982 37.5892 50.9194 37.3346C46.7351 36.9646 41.7628 37.1158 40.5785 34.5626C40.1062 33.2258 40.508 31.5658 41.8311 30.7435C45.3317 28.5386 52.4564 28.8315 56.0816 30.4786C57.7462 31.2526 58.7108 32.8423 59.109 34.4472C59.1828 34.9186 59.5244 35.4106 60.1121 35.3901C61.4979 35.4158 62.8838 35.3969 64.2693 35.3986C64.7453 35.4295 65.2665 35.1801 65.3594 34.7275C65.3007 31.3732 63.4561 27.9395 60.129 26.3035Z" fill="#8CC84B"/>
    </symbol>
    <symbol id="icon-mongodb" viewBox="0 0 80 80" width="80" height="80">
        <path d="M65.1842 0.958893H16.7335C8.02141 0.958893 0.958862 8.02144 0.958862 16.7335V65.1842C0.958862 73.8963 8.02141 80.9589 16.7335 80.9589H65.1842C73.8963 80.9589 80.9589 73.8963 80.9589 65.1842V16.7335C80.9589 8.02144 73.8963 0.958893 65.1842 0.958893Z" fill="white"/>
        <path d="M42.0794 69.3851L40.56 68.8658C40.56 68.8658 40.7456 61.1199 37.9655 60.5641C36.1128 58.4142 38.2627 -30.6108 44.9338 60.2673C44.9338 60.2673 42.6356 61.4159 42.228 63.3807C41.783 65.3081 42.0794 69.3851 42.0794 69.3851Z" fill="#A6A385"/>
        <path d="M42.8951 61.8983C42.8951 61.8983 56.2011 53.1512 53.0873 34.9531C50.0855 21.7222 43.0064 17.3858 42.228 15.7179C41.3758 14.5318 40.5601 12.4566 40.5601 12.4566L41.1163 49.2595C41.1163 49.2968 39.9669 60.5263 42.8951 61.8983Z" fill="#499D4A"/>
        <path d="M39.7821 62.3798C39.7821 62.3798 27.2914 53.8553 28.0328 38.8452C28.7369 23.8348 37.5579 16.4592 39.2628 15.125C40.3749 13.939 40.4118 13.494 40.4861 12.308C41.2645 13.976 41.1163 37.2516 41.2271 39.9939C41.5605 50.5567 40.6343 60.3789 39.7821 62.3798Z" fill="#58AA50"/>
    </symbol>
    <symbol id="icon-git" viewBox="0 0 80 80" width="80" height="80">
        <path d="M1.67246 44.0378C-0.557486 41.8078 -0.557486 38.1923 1.67246 35.9623L35.9623 1.67246C38.1923 -0.557486 41.8078 -0.557486 44.0378 1.67246L78.3275 35.9623C80.5575 38.1923 80.5575 41.8078 78.3275 44.0378L44.0378 78.3275C41.8078 80.5575 38.1923 80.5575 35.9623 78.3275L1.67246 44.0378Z" fill="#EE513B"/>
        <path d="M28.9969 8.74719L25.5246 12.2196L34.4929 21.1879C34.13 21.9663 33.9275 22.8343 33.9275 23.7497C33.9275 26.3486 35.5603 28.566 37.856 29.432V51.3709C35.5603 52.2369 33.9275 54.4543 33.9275 57.0532C33.9275 60.4063 36.6458 63.1246 39.9989 63.1246C43.352 63.1246 46.0703 60.4063 46.0703 57.0532C46.0703 54.6972 44.7283 52.6543 42.7669 51.648V29.462L51.3398 38.0349C50.9946 38.7974 50.8026 39.644 50.8026 40.5355C50.8026 43.8886 53.5209 46.6069 56.8741 46.6069C60.2272 46.6069 62.9455 43.8886 62.9455 40.5355C62.9455 37.1823 60.2272 34.464 56.8741 34.464C56.2223 34.464 55.5949 34.5666 55.0063 34.7566L45.7992 25.5494C45.9755 24.9809 46.0703 24.3763 46.0703 23.7497C46.0703 20.3965 43.352 17.6782 39.9989 17.6782C39.3723 17.6782 38.768 17.7732 38.1992 17.9494L28.9969 8.74719Z" fill="white"/>
    </symbol>

    <symbol id="icon-flutter" viewBox="0 0 80 80" width="80" height="80">
        <path d="M49.4118 0L0 39.8381L15.2939 52.1687L80 0H49.4118Z" fill="#47C5FB"/>
        <path d="M49.0675 36.738L22.611 58.0685L37.9624 70.6304L53.2281 58.3225L80 36.738H49.0675Z" fill="#47C5FB"/>
        <path d="M37.9626 70.6304L49.5838 80H79.9998L53.2279 58.3225L37.9626 70.6304Z" fill="#00569E"/>
        <path d="M22.4389 58.2071L37.7332 45.8762L53.2278 58.3226L37.9625 70.6305L22.4389 58.2071Z" fill="#00B5F8"/>
        <path d="M37.9625 70.6305L50.6739 67.2297L51.9366 59.3637L37.9625 70.6305Z" fill="url(#paint0_linear_43_67)" fill-opacity="0.8"/>
        <defs>
        <linearGradient id="paint0_linear_43_67" x1="93.184" y1="363.489" x2="1039.98" y2="786.657" gradientUnits="userSpaceOnUse">
        <stop/>
        <stop offset="1" stop-opacity="0"/>
        </linearGradient>
        </defs>
    </symbol>
    <symbol id="icon-react" viewBox="0 0 80 80" width="80" height="80">
        <path d="M40 47.9466C43.9449 47.9466 47.1429 44.3527 47.1429 39.9194C47.1429 35.4861 43.9449 31.8922 40 31.8922C36.0551 31.8922 32.8571 35.4861 32.8571 39.9194C32.8571 44.3527 36.0551 47.9466 40 47.9466Z" fill="#00D8FF"/>
        <path d="M40 58.3242C31.4147 58.5576 22.8508 57.2571 14.6286 54.4712C10.8303 53.1181 7.28781 50.9865 4.18 48.1842C2.99409 47.2269 2.00649 45.9926 1.28498 44.566C0.563465 43.1394 0.125113 41.5543 0 39.9194C0 34.6118 5.18857 29.4101 13.88 26.0066C22.3221 22.9907 31.1426 21.5291 40 21.6783C48.7392 21.5411 57.4415 22.9763 65.7771 25.9295C69.4351 27.2401 72.8575 29.2686 75.8857 31.921C77.0514 32.8337 78.0241 34.0233 78.7351 35.4055C79.4461 36.7877 79.878 38.3287 80 39.9194C80 45.4357 74.2 51.0259 64.8571 54.5001C56.7941 57.1952 48.4109 58.4849 40 58.3242ZM40 25.5185C31.526 25.3912 23.0881 26.7807 15.0029 29.6349C7.00286 32.7719 3.41714 37.0617 3.41714 39.9097C3.41714 42.8895 7.27143 47.5742 15.7343 50.8268C23.6002 53.4785 31.7903 54.7129 40 54.484C48.0469 54.6457 56.0684 53.4221 63.7857 50.8557C72.5714 47.5838 76.5714 42.8927 76.5714 39.9194C76.4273 38.899 76.0964 37.9234 75.5997 37.054C75.103 36.1847 74.4513 35.4406 73.6857 34.8686C70.9764 32.5155 67.9191 30.7177 64.6543 29.5578C56.6801 26.7443 48.3571 25.3807 40 25.5185Z" fill="#00D8FF"/>
        <path d="M23.7714 79.9561C22.4386 79.9904 21.1214 79.627 19.9543 78.9029C15.8629 76.2507 14.4457 68.6023 16.1629 58.4399C18.0561 48.7143 21.3366 39.397 25.8771 30.8486C30.1364 22.2726 35.5891 14.5177 42.0286 7.87784C44.8662 4.97103 48.1396 2.65224 51.6971 1.02899C52.9839 0.351299 54.3875 0 55.8086 0C57.2296 0 58.6333 0.351299 59.92 1.02899C64.1743 3.78394 65.5829 12.2222 63.5971 23.0525C61.6454 32.2504 58.4502 41.0575 54.1229 49.1668C50.0135 57.6415 44.7325 65.3289 38.4771 71.9417C35.5365 74.9624 32.1238 77.3455 28.4114 78.9703C26.9252 79.5902 25.3565 79.9235 23.7714 79.9561ZM28.8371 32.7559C24.506 40.9415 21.3619 49.8498 19.5229 59.1462C17.9429 68.506 19.46 74.1347 21.6657 75.5668C23.9514 77.0534 29.5 75.6438 36.2371 69.0294C42.2086 62.6941 47.2492 55.3356 51.1714 47.2274C55.317 39.4747 58.382 31.0546 60.26 22.2595C62.1286 12.0649 60.5143 5.82286 58.2229 4.33943C57.364 3.96962 56.4463 3.80408 55.5276 3.85326C54.609 3.90245 53.7094 4.1653 52.8857 4.6252C49.7191 6.09369 46.8078 8.17848 44.2857 10.7837C38.1333 17.1438 32.9248 24.5679 28.8571 32.7751L28.8371 32.7559Z" fill="#00D8FF"/>
        <path d="M56.22 79.9978C52.3486 79.9978 47.4314 77.3649 42.3114 72.4169C35.7592 65.7166 30.2142 57.8696 25.8914 49.1796C21.4078 40.7489 18.1534 31.5664 16.2514 21.9801C15.4266 17.7625 15.2738 13.414 15.8 9.13651C15.9217 7.54971 16.3516 6.01222 17.0595 4.63247C17.7674 3.25271 18.7361 2.06429 19.8972 1.15101C24.1457 -1.61357 31.3543 1.22807 38.7114 8.56818C44.8274 15.0612 50.0211 22.57 54.1114 30.8325C58.5923 39.0664 61.8809 48.0479 63.8543 57.4413C64.7146 61.8135 64.8473 66.327 64.2457 70.7536C64.1026 72.3861 63.647 73.9644 62.9102 75.3805C62.1734 76.7965 61.1729 78.0167 59.9772 78.9575C58.829 79.6726 57.5323 80.0317 56.22 79.9978ZM28.8486 47.2467C32.9955 55.5514 38.2923 63.0615 44.54 69.495C50.9657 75.708 56.0629 77.0438 58.2543 75.5957C60.54 74.1026 62.2257 68.0083 60.4886 58.1476C58.5854 49.1794 55.4311 40.6062 51.1429 32.7462C47.2395 24.8382 42.2821 17.6482 36.4429 11.4259C29.5172 4.51603 23.9 2.97159 21.6114 4.46144C20.8981 5.11288 20.3128 5.92344 19.8923 6.84196C19.4718 7.76048 19.2254 8.767 19.1686 9.79795C18.7143 13.6128 18.8623 17.4877 19.6057 21.2448C21.4352 30.4124 24.5564 39.1925 28.8514 47.2531L28.8486 47.2467Z" fill="#00D8FF"/>
    </symbol>

<symbol id="icon-sass" viewBox="0 0 80 80" width="80" height="80">
    <path d="M68.8784 46.0279C66.3664 46.0323 63.888 46.799 61.6306 48.2701C60.9238 46.7046 60.378 45.0193 60.0079 43.2596C59.7952 41.8802 59.7461 40.4648 59.8622 39.0651C60.1064 37.5249 60.4232 36.0068 60.8107 34.5198C60.7964 34.3254 60.6364 33.4064 59.028 33.3759C57.4196 33.3454 56.034 33.7839 55.8855 34.352C55.6061 35.3898 55.3818 36.4525 55.2141 37.5322C53.8829 41.9155 52.2444 46.121 50.3203 50.0928C49.2423 47.734 48.7989 44.9552 49.0633 42.2148C49.3075 40.6745 49.6243 39.1564 50.0118 37.6695C49.9975 37.475 49.8375 36.556 48.2291 36.5255C46.6207 36.495 45.2351 36.9336 45.0866 37.5017C44.938 38.0699 44.7494 39.4083 44.4152 40.6819C44.0809 41.9555 40.1785 53.5932 39.1557 56.5942C38.6301 58.1194 38.1758 59.3625 37.8559 60.2014C37.8407 60.2559 37.8216 60.3083 37.7987 60.3578C37.513 61.0784 37.3616 61.4712 37.3616 61.4712V61.4903C37.1417 62.0165 36.9074 62.5046 36.7903 62.5046C36.586 61.4152 36.5958 60.2738 36.8188 59.1909C37.3902 55.1528 38.7901 48.8763 38.7758 48.659C38.7758 48.5408 39.0386 47.4502 37.8701 46.8859C37.5992 46.7138 37.2948 46.658 36.9991 46.7263C36.7034 46.7946 36.4308 46.9836 36.2189 47.2672C36.116 47.2672 36.0446 47.5989 36.0446 47.5989C36.0446 47.5989 37.3159 40.5408 33.6192 40.5408C32.1796 40.9273 30.8124 41.6942 29.5981 42.7963C28.3839 43.8984 27.347 45.3135 26.5484 46.9583C25.5543 47.679 23.4373 49.2195 21.1719 50.8783C20.3148 51.5227 19.4177 52.1671 18.5864 52.7848C18.5293 52.7086 18.4693 52.6094 18.4121 52.5332C13.9126 46.1347 5.64201 41.6199 5.99912 33.0594C6.13053 29.9402 6.93331 21.7496 21.8804 11.801C34.182 3.70952 43.9724 5.95166 45.6665 10.924C48.092 18.0241 40.4213 31.2062 27.7112 33.1166C26.3051 33.4973 24.8528 33.4514 23.4618 32.9821C22.0708 32.5128 20.7766 31.6322 19.6749 30.4054C19.0035 29.4293 18.9007 29.3721 18.6521 29.5665C18.2436 29.8601 18.5064 30.7372 18.6521 31.2443C19.137 32.4155 19.7928 33.4451 20.5809 34.2723C21.3689 35.0995 22.2732 35.7075 23.2402 36.0603C28.2404 37.5025 33.4536 36.813 38.1444 34.0889C45.8579 30.1118 51.8573 19.0537 50.0975 9.79151C48.3291 0.392081 36.6417 -2.70802 25.58 2.54651C18.6514 5.65833 12.2494 10.5599 6.73904 16.9717C0.645382 24.5789 -0.317377 31.1871 0.076868 33.9593C1.50529 43.7896 11.65 50.1843 15.7096 54.9316C15.5039 55.088 15.3153 55.2253 15.1553 55.3396C13.1241 56.6857 5.38204 62.0889 3.44224 67.801C1.25103 74.2834 3.79363 78.9164 5.47346 79.5417C8.00465 80.3505 10.6619 80.0841 13.0741 78.7798C15.4864 77.4754 17.5334 75.1983 18.9292 72.2662C20.1179 69.8343 20.8485 67.0549 21.0589 64.1648C21.2693 61.2747 20.9533 58.3595 20.1377 55.6676C20.1239 55.6241 20.1046 55.5841 20.0805 55.5494L21.6718 54.3025C22.7088 53.4826 23.7316 52.7238 24.6086 52.0985C24.0139 54.3881 23.6648 56.7784 23.5716 59.1986C23.3697 62.9079 24.2202 66.5829 25.9542 69.4941C26.2181 69.7972 26.5244 70.0275 26.8554 70.1715C27.1864 70.3155 27.5356 70.3704 27.8826 70.333C29.5967 70.333 30.3823 68.4264 31.2423 66.1614C32.2936 63.393 33.242 60.1747 33.242 60.1747C33.242 60.1747 32.0593 68.8725 35.2733 68.8725C36.4417 68.8725 37.6245 66.8439 38.153 65.822V65.8411C38.153 65.8411 38.1815 65.7839 38.2415 65.6466L38.4301 65.2386V65.2005C38.8986 64.1099 39.9499 61.6314 41.5126 57.517C43.5296 52.2129 45.4722 45.5818 45.4722 45.5818C45.6596 47.0391 45.9182 48.4784 46.2464 49.8906C46.717 51.6025 47.2734 53.2701 47.912 54.8821C47.4435 55.7591 47.1521 56.2472 47.1521 56.2472L47.1663 56.2662C46.7864 56.9297 46.3779 57.6504 45.9236 58.352C44.5721 60.3352 43.3182 62.433 42.1697 64.6323C41.9991 65.0017 41.9404 65.4441 42.0057 65.8692C42.071 66.2943 42.2553 66.6702 42.5211 66.9202C43.1225 67.3379 43.808 67.4888 44.478 67.3511C45.4878 67.275 46.4807 66.972 47.4149 66.455C48.3177 66.0309 49.1694 65.4336 49.9432 64.6819C50.7409 63.9442 51.383 62.945 51.8078 61.7804C52.2326 60.6157 52.4257 59.3248 52.3687 58.0317C52.2788 56.4029 51.9671 54.8096 51.4488 53.3301C51.5945 53.0556 51.7344 52.7848 51.8716 52.5103C53.4958 49.2744 54.9597 45.9002 56.254 42.4092C56.4414 43.8665 56.7 45.3059 57.0282 46.7181C57.4163 48.1974 57.894 49.6321 58.4566 51.0079C56.5881 52.9267 55.1163 55.4489 54.1799 58.3368C53.26 61.8868 53.9742 63.4845 55.3226 63.8544C56.0605 63.9223 56.7983 63.7206 57.4567 63.271C58.4248 62.8463 59.3369 62.221 60.1593 61.4178C61.0265 60.7347 61.7529 59.7745 62.273 58.6236C62.7931 57.4728 63.0907 56.1674 63.139 54.8249C63.0741 53.4848 62.8474 52.1675 62.4676 50.924C64.9334 49.6382 67.6069 49.2283 70.2268 49.7343C77.1804 50.8249 78.5546 56.6171 78.2917 59.0575C78.1685 59.9226 77.9079 60.7425 77.5275 61.4621C77.147 62.1816 76.6556 62.7841 76.0862 63.2291C75.6034 63.6371 75.4435 63.7743 75.4863 64.068C75.5434 64.4988 75.772 64.476 76.1862 64.3997C77.2342 63.9649 78.1589 63.1164 78.8383 61.9659C79.5176 60.8155 79.9197 59.4172 79.9916 57.9555C80.2115 52.2357 76.1205 45.9631 68.887 46.0203L68.8784 46.0279ZM15.2267 70.1576C12.9184 73.5131 9.70445 74.7791 8.31603 73.7076C6.82475 72.5637 7.4104 67.6066 10.2444 64.0527C11.9255 62.0328 13.7425 60.2241 15.6724 58.6495C16.0095 58.3749 16.5066 57.986 17.1008 57.5055L17.2608 57.3873L17.6122 57.0937C18.1185 59.3579 18.1644 61.7612 17.7452 64.0569C17.326 66.3526 16.4568 68.4582 15.2267 70.1576ZM32.0279 54.9049C31.2251 57.517 29.5453 64.2091 28.5225 63.8354C27.6455 63.5227 27.0941 58.4512 28.3483 53.4407C28.9815 51.0287 29.9039 48.7699 31.0794 46.7524C32.3364 44.8802 33.7249 44.2548 34.0591 45.0174C33.7542 48.4297 33.0696 51.7623 32.0279 54.9049ZM45.8922 63.7591C45.5551 63.9917 45.2351 64.1404 45.0894 64.0336C44.9866 63.9574 45.2351 63.6523 45.2351 63.6523C45.2351 63.6523 46.9749 61.1547 47.6606 60.026C48.0548 59.3625 48.5176 58.5846 49.0204 57.7038V57.9555C49.0204 60.9374 46.8578 62.9469 45.895 63.7667L45.8922 63.7591ZM56.5882 60.5027C56.3397 60.2701 56.3825 59.4884 57.2167 57.0518C57.7968 55.4869 58.6071 54.094 59.5994 52.9564C59.7515 53.5336 59.8306 54.1406 59.8336 54.7524C59.8449 56.0548 59.5329 57.3255 58.9463 58.3663C58.3598 59.4072 57.5317 60.1597 56.5911 60.5065L56.5882 60.5027Z" fill="#CD6799"/>

</symbol>
<symbol id="icon-my" viewBox="0 0 80 80" width="80" height="80" >
    <g filter="url(#filter0_d_51_91)">
        <mask id="path-1-outside-1_51_91" maskUnits="userSpaceOnUse" x="3" y="3" width="60" height="62" fill="black">
        <rect fill="white" x="3" y="3" width="60" height="62"/>
        <path d="M12.1016 52.3125L27.4531 6.41406H38.4297L54.3672 52.5469C56.6068 53.3542 58.1693 54.2917 59.0547 55.3594L58.2734 62H39.5625L38.7422 55.3594C39.3932 54.526 40.6823 53.7318 42.6094 52.9766L40.4219 46.2578H24.4453L22.4141 52.7031C24.2891 53.4583 25.6823 54.3438 26.5938 55.3594L25.7734 62H7.53125L6.75 55.3594C7.73958 54.1354 9.52344 53.1198 12.1016 52.3125ZM33 18.9531L32.9219 17.5859H31.7891C31.7891 20.8151 31.125 24.6042 29.7969 28.9531L26.6719 38.875H38.1172L35.0703 29.1094C33.8464 25.3594 33.1562 21.974 33 18.9531Z"/>
        </mask>
        <path d="M12.1016 52.3125L12.998 55.1754L14.4605 54.7175L14.9466 53.2641L12.1016 52.3125ZM27.4531 6.41406V3.41406H25.2932L24.608 5.46247L27.4531 6.41406ZM38.4297 6.41406L41.2652 5.43446L40.5673 3.41406H38.4297V6.41406ZM54.3672 52.5469L51.5316 53.5265L52.0001 54.8826L53.3499 55.3691L54.3672 52.5469ZM59.0547 55.3594L62.0341 55.7099L62.1843 54.4336L61.364 53.4444L59.0547 55.3594ZM58.2734 62V65H60.9412L61.2529 62.3505L58.2734 62ZM39.5625 62L36.5851 62.3678L36.9103 65H39.5625V62ZM38.7422 55.3594L36.3781 53.5124L35.6123 54.4927L35.7648 55.7272L38.7422 55.3594ZM42.6094 52.9766L43.704 55.7697L46.3377 54.7376L45.462 52.0478L42.6094 52.9766ZM40.4219 46.2578L43.2745 45.3291L42.6001 43.2578H40.4219V46.2578ZM24.4453 46.2578V43.2578H22.2453L21.584 45.3561L24.4453 46.2578ZM22.4141 52.7031L19.5528 51.8014L18.7185 54.4488L21.2932 55.4859L22.4141 52.7031ZM26.5938 55.3594L29.5711 55.7272L29.7385 54.3719L28.8265 53.3556L26.5938 55.3594ZM25.7734 62V65H28.4257L28.7508 62.3678L25.7734 62ZM7.53125 62L4.5518 62.3505L4.8635 65H7.53125V62ZM6.75 55.3594L4.41711 53.4732L3.62296 54.4554L3.77055 55.7099L6.75 55.3594ZM33 18.9531L35.996 18.7982L35.9956 18.7901L35.9951 18.782L33 18.9531ZM32.9219 17.5859L35.917 17.4148L35.7553 14.5859H32.9219V17.5859ZM31.7891 17.5859V14.5859H28.7891V17.5859H31.7891ZM29.7969 28.9531L32.6583 29.8544L32.6622 29.8419L32.6661 29.8293L29.7969 28.9531ZM26.6719 38.875L23.8104 37.9738L22.5817 41.875H26.6719V38.875ZM38.1172 38.875V41.875H42.1958L40.981 37.9815L38.1172 38.875ZM35.0703 29.1094L37.9342 28.2159L37.9283 28.1972L37.9222 28.1785L35.0703 29.1094ZM14.9466 53.2641L30.2982 7.36565L24.608 5.46247L9.25648 51.3609L14.9466 53.2641ZM27.4531 9.41406H38.4297V3.41406H27.4531V9.41406ZM35.5941 7.39366L51.5316 53.5265L57.2027 51.5673L41.2652 5.43446L35.5941 7.39366ZM53.3499 55.3691C55.4022 56.1089 56.3668 56.8178 56.7454 57.2744L61.364 53.4444C59.9718 51.7655 57.8114 50.5994 55.3845 49.7246L53.3499 55.3691ZM56.0752 55.0089L55.294 61.6495L61.2529 62.3505L62.0341 55.7099L56.0752 55.0089ZM58.2734 59H39.5625V65H58.2734V59ZM42.5399 61.6322L41.7196 54.9916L35.7648 55.7272L36.5851 62.3678L42.5399 61.6322ZM41.1063 57.2063C41.2377 57.0381 41.8816 56.4839 43.704 55.7697L41.5148 50.1834C39.483 50.9796 37.5488 52.014 36.3781 53.5124L41.1063 57.2063ZM45.462 52.0478L43.2745 45.3291L37.5693 47.1866L39.7568 53.9053L45.462 52.0478ZM40.4219 43.2578H24.4453V49.2578H40.4219V43.2578ZM21.584 45.3561L19.5528 51.8014L25.2753 53.6049L27.3066 47.1595L21.584 45.3561ZM21.2932 55.4859C22.931 56.1455 23.8673 56.8129 24.361 57.3631L28.8265 53.3556C27.4973 51.8746 25.6471 50.7711 23.5349 49.9204L21.2932 55.4859ZM23.6164 54.9916L22.7961 61.6322L28.7508 62.3678L29.5711 55.7272L23.6164 54.9916ZM25.7734 59H7.53125V65H25.7734V59ZM10.5107 61.6495L9.72945 55.0089L3.77055 55.7099L4.5518 62.3505L10.5107 61.6495ZM9.08289 57.2455C9.51905 56.7061 10.6257 55.9183 12.998 55.1754L11.2051 49.4496C8.42118 50.3213 5.96012 51.5648 4.41711 53.4732L9.08289 57.2455ZM35.9951 18.782L35.917 17.4148L29.9268 17.7571L30.0049 19.1243L35.9951 18.782ZM32.9219 14.5859H31.7891V20.5859H32.9219V14.5859ZM28.7891 17.5859C28.7891 20.4245 28.2015 23.9058 26.9277 28.0769L32.6661 29.8293C34.0485 25.3025 34.7891 21.2057 34.7891 17.5859H28.7891ZM26.9354 28.0519L23.8104 37.9738L29.5333 39.7762L32.6583 29.8544L26.9354 28.0519ZM26.6719 41.875H38.1172V35.875H26.6719V41.875ZM40.981 37.9815L37.9342 28.2159L32.2065 30.0029L35.2533 39.7685L40.981 37.9815ZM37.9222 28.1785C36.7569 24.6081 36.1352 21.4893 35.996 18.7982L30.004 19.1081C30.1773 22.4587 30.9358 26.1106 32.2184 30.0402L37.9222 28.1785Z" fill="#FFC86A" mask="url(#path-1-outside-1_51_91)"/>
        </g>
        <defs>
        <filter id="filter0_d_51_91" x="0.75" y="0.414062" width="64.3047" height="67.5859" filterUnits="userSpaceOnUse" color-interpolation-filters="sRGB">
        <feFlood flood-opacity="0" result="BackgroundImageFix"/>
        <feColorMatrix in="SourceAlpha" type="matrix" values="0 0 0 0 0 0 0 0 0 0 0 0 0 0 0 0 0 0 127 0" result="hardAlpha"/>
        <feOffset/>
        <feGaussianBlur stdDeviation="3"/>
        <feComposite in2="hardAlpha" operator="out"/>
        <feColorMatrix type="matrix" values="0 0 0 0 1 0 0 0 0 0.784314 0 0 0 0 0.415686 0 0 0 0.5 0"/>
        <feBlend mode="normal" in2="BackgroundImageFix" result="effect1_dropShadow_51_91"/>
        <feBlend mode="normal" in="SourceGraphic" in2="effect1_dropShadow_51_91" result="shape"/>
        </filter>
        </defs>
</symbol>
<symbol id="icon-2018" viewBox="0 0 118 41" width="80" height="80" >
    <rect y="3" width="76" height="35" fill="#5C5F61"/>
    <path d="M117.95 20.35L75.2374 37.9736V2.72638L117.95 20.35Z" fill="#5C5F61"/>
    <path d="M22.7045 14.42C24.2378 14.42 25.3045 14.8 25.9045 15.56C26.5045 16.3067 26.8045 17.1333 26.8045 18.04C26.8045 18.84 26.5778 19.5733 26.1245 20.24C25.6845 20.9067 24.9778 21.64 24.0045 22.44L22.1045 24.02H27.0445L27.3845 26H18.6845V24.26L22.6045 20.82C23.3511 20.1667 23.8511 19.6467 24.1045 19.26C24.3578 18.86 24.4845 18.4533 24.4845 18.04C24.4845 17.6133 24.3245 17.2533 24.0045 16.96C23.6845 16.6667 23.2378 16.52 22.6645 16.52C22.1711 16.52 21.6045 16.7 20.9645 17.06C20.3245 17.42 19.9845 17.6067 19.9445 17.62L18.8245 15.86C19.1978 15.5667 19.7045 15.2533 20.3445 14.92C20.9845 14.5867 21.7711 14.42 22.7045 14.42ZM29.2607 20.3C29.2607 18.4733 29.754 17.04 30.7407 16C31.7274 14.9467 32.9607 14.42 34.4407 14.42C35.934 14.42 37.1607 14.9267 38.1207 15.94C39.094 16.9533 39.5807 18.3933 39.5807 20.26C39.5807 22.1 39.0807 23.56 38.0807 24.64C37.094 25.72 35.874 26.26 34.4207 26.26C32.954 26.26 31.7274 25.74 30.7407 24.7C29.754 23.6467 29.2607 22.18 29.2607 20.3ZM31.6407 20.24C31.6407 21.48 31.914 22.4267 32.4607 23.08C33.0207 23.72 33.6807 24.04 34.4407 24.04C35.174 24.04 35.8207 23.72 36.3807 23.08C36.954 22.44 37.2407 21.5267 37.2407 20.34C37.2407 19.1133 36.9607 18.1867 36.4007 17.56C35.854 16.9333 35.194 16.62 34.4207 16.62C33.674 16.62 33.0207 16.9333 32.4607 17.56C31.914 18.1733 31.6407 19.0667 31.6407 20.24ZM41.9821 24.2H44.1621V17.66L43.1221 18.26L41.9021 16.5L45.0221 14.68H46.7621V24.2H48.3021L48.5221 26H42.1821L41.9821 24.2ZM59.8884 22.3C59.8884 23.38 59.475 24.3133 58.6484 25.1C57.835 25.8733 56.7084 26.26 55.2684 26.26C53.8017 26.26 52.655 25.8733 51.8284 25.1C51.015 24.3133 50.6084 23.38 50.6084 22.3C50.6084 21.62 50.8417 20.98 51.3084 20.38C51.775 19.78 52.2884 19.3867 52.8484 19.2C52.3417 18.9733 51.9284 18.6333 51.6084 18.18C51.2884 17.7133 51.1284 17.2 51.1284 16.64C51.1284 15.6933 51.495 14.8733 52.2284 14.18C52.975 13.4867 53.9884 13.14 55.2684 13.14C56.535 13.14 57.535 13.4867 58.2684 14.18C59.015 14.8733 59.3884 15.6933 59.3884 16.64C59.3884 17.2 59.2217 17.7133 58.8884 18.18C58.5684 18.6333 58.155 18.9733 57.6484 19.2C58.2084 19.3867 58.7217 19.78 59.1884 20.38C59.655 20.98 59.8884 21.62 59.8884 22.3ZM53.4484 16.68C53.4484 17.12 53.6017 17.48 53.9084 17.76C54.2284 18.0267 54.6817 18.2067 55.2684 18.3C55.855 18.2067 56.295 18.02 56.5884 17.74C56.895 17.46 57.0484 17.0933 57.0484 16.64C57.0484 16.2667 56.875 15.9467 56.5284 15.68C56.1817 15.4 55.7484 15.26 55.2284 15.26C54.735 15.26 54.315 15.4 53.9684 15.68C53.6217 15.96 53.4484 16.2933 53.4484 16.68ZM52.9484 22.34C52.9484 22.9133 53.1817 23.36 53.6484 23.68C54.1284 24 54.6617 24.16 55.2484 24.16C55.8217 24.16 56.3484 24 56.8284 23.68C57.3217 23.36 57.5684 22.9133 57.5684 22.34C57.5684 21.86 57.3684 21.42 56.9684 21.02C56.5817 20.62 56.015 20.36 55.2684 20.24C54.495 20.36 53.915 20.62 53.5284 21.02C53.1417 21.42 52.9484 21.86 52.9484 22.34Z" fill="#F8F9F8"/>
</symbol>
<symbol id="icon-2021" width="118" height="41" viewBox="0 0 118 41" fill="none" xmlns="http://www.w3.org/2000/svg" >
    <rect y="3" width="76" height="35" fill="#5C5F61"/>
<path d="M117.95 20.35L75.2374 37.9736V2.72638L117.95 20.35Z" fill="#5C5F61"/>
<path d="M22.172 15.42C23.7053 15.42 24.772 15.8 25.372 16.56C25.972 17.3067 26.272 18.1333 26.272 19.04C26.272 19.84 26.0453 20.5733 25.592 21.24C25.152 21.9067 24.4453 22.64 23.472 23.44L21.572 25.02H26.512L26.852 27H18.152V25.26L22.072 21.82C22.8187 21.1667 23.3187 20.6467 23.572 20.26C23.8253 19.86 23.952 19.4533 23.952 19.04C23.952 18.6133 23.792 18.2533 23.472 17.96C23.152 17.6667 22.7053 17.52 22.132 17.52C21.6387 17.52 21.072 17.7 20.432 18.06C19.792 18.42 19.452 18.6067 19.412 18.62L18.292 16.86C18.6653 16.5667 19.172 16.2533 19.812 15.92C20.452 15.5867 21.2387 15.42 22.172 15.42ZM28.7282 21.3C28.7282 19.4733 29.2216 18.04 30.2082 17C31.1949 15.9467 32.4282 15.42 33.9082 15.42C35.4016 15.42 36.6282 15.9267 37.5882 16.94C38.5616 17.9533 39.0482 19.3933 39.0482 21.26C39.0482 23.1 38.5482 24.56 37.5482 25.64C36.5616 26.72 35.3416 27.26 33.8882 27.26C32.4216 27.26 31.1949 26.74 30.2082 25.7C29.2216 24.6467 28.7282 23.18 28.7282 21.3ZM31.1082 21.24C31.1082 22.48 31.3816 23.4267 31.9282 24.08C32.4882 24.72 33.1482 25.04 33.9082 25.04C34.6416 25.04 35.2882 24.72 35.8482 24.08C36.4216 23.44 36.7082 22.5267 36.7082 21.34C36.7082 20.1133 36.4282 19.1867 35.8682 18.56C35.3216 17.9333 34.6616 17.62 33.8882 17.62C33.1416 17.62 32.4882 17.9333 31.9282 18.56C31.3816 19.1733 31.1082 20.0667 31.1082 21.24ZM44.7696 15.42C46.303 15.42 47.3696 15.8 47.9696 16.56C48.5696 17.3067 48.8696 18.1333 48.8696 19.04C48.8696 19.84 48.643 20.5733 48.1896 21.24C47.7496 21.9067 47.043 22.64 46.0696 23.44L44.1696 25.02H49.1096L49.4496 27H40.7496V25.26L44.6696 21.82C45.4163 21.1667 45.9163 20.6467 46.1696 20.26C46.423 19.86 46.5496 19.4533 46.5496 19.04C46.5496 18.6133 46.3896 18.2533 46.0696 17.96C45.7496 17.6667 45.303 17.52 44.7296 17.52C44.2363 17.52 43.6696 17.7 43.0296 18.06C42.3896 18.42 42.0496 18.6067 42.0096 18.62L40.8896 16.86C41.263 16.5667 41.7696 16.2533 42.4096 15.92C43.0496 15.5867 43.8363 15.42 44.7696 15.42ZM51.6059 25.2H53.7859V18.66L52.7459 19.26L51.5259 17.5L54.6459 15.68H56.3859V25.2H57.9259L58.1459 27H51.8059L51.6059 25.2Z" fill="#F8F9F8"/>
</symbol>
</svg>

