<svg xmlns="http://www.w3.org/2000/svg" fill="none">
    <symbol id="icon-fb" viewBox="0 0 40 40">
        <path d="M30 3.33333H25C22.7899 3.33333 20.6702 4.2113 19.1074 5.77411C17.5446 7.33691 16.6667 9.45652 16.6667 11.6667V16.6667H11.6667V23.3333H16.6667V36.6667H23.3333V23.3333H28.3333L30 16.6667H23.3333V11.6667C23.3333 11.2246 23.5089 10.8007 23.8215 10.4882C24.134 10.1756 24.558 10 25 10H30V3.33333Z" stroke="#1877F2" stroke-width="4" stroke-linecap="round" stroke-linejoin="round" fill="none"/>
    </symbol>
  <symbol id="icon-insta" viewBox="0 0 40 40">
    <path d="M29.1667 10.8333H29.1833M11.6667 3.33334H28.3333C32.9357 3.33334 36.6667 7.0643 36.6667 11.6667V28.3333C36.6667 32.9357 32.9357 36.6667 28.3333 36.6667H11.6667C7.0643 36.6667 3.33334 32.9357 3.33334 28.3333V11.6667C3.33334 7.0643 7.0643 3.33334 11.6667 3.33334ZM26.6667 18.95C26.8724 20.3371 26.6354 21.7537 25.9896 22.9984C25.3438 24.243 24.3219 25.2524 23.0694 25.8828C21.8169 26.5132 20.3974 26.7327 19.013 26.5099C17.6286 26.2871 16.3496 25.6335 15.3581 24.6419C14.3665 23.6504 13.7129 22.3715 13.4901 20.987C13.2673 19.6026 13.4868 18.1832 14.1172 16.9306C14.7477 15.6781 15.757 14.6562 17.0017 14.0104C18.2463 13.3646 19.6629 13.1277 21.05 13.3333C22.4649 13.5432 23.7748 14.2024 24.7862 15.2139C25.7976 16.2253 26.4569 17.5351 26.6667 18.95Z" stroke="#D62976" stroke-width="4" stroke-linecap="round" stroke-linejoin="round"/>
  </symbol>

  <symbol id="icon-liIn" viewBox="0 0 40 40">
    <path d="M26.6667 13.3333C29.3188 13.3333 31.8624 14.3869 33.7377 16.2623C35.6131 18.1376 36.6667 20.6812 36.6667 23.3333V35H30V23.3333C30 22.4493 29.6488 21.6014 29.0237 20.9763C28.3986 20.3512 27.5507 20 26.6667 20C25.7826 20 24.9348 20.3512 24.3096 20.9763C23.6845 21.6014 23.3333 22.4493 23.3333 23.3333V35H16.6667V23.3333C16.6667 20.6812 17.7202 18.1376 19.5956 16.2623C21.471 14.3869 24.0145 13.3333 26.6667 13.3333Z" stroke="#0077B5" stroke-width="4" stroke-linecap="round" stroke-linejoin="round"/>
    <path d="M10 15H3.33333V35H10V15Z" stroke="#0077B5" stroke-width="4" stroke-linecap="round" stroke-linejoin="round"/>
    <path d="M6.66666 10C8.50761 10 10 8.50763 10 6.66668C10 4.82573 8.50761 3.33334 6.66666 3.33334C4.82571 3.33334 3.33333 4.82573 3.33333 6.66668C3.33333 8.50763 4.82571 10 6.66666 10Z" stroke="#0077B5" stroke-width="4" stroke-linecap="round" stroke-linejoin="round"/>
  </symbol>

  <symbol id="icon-whatsapp" viewBox="0 0 40 40" fill="none">
    <path d="M29.0927 23.4406C29.0148 23.4032 26.0987 21.9673 25.5805 21.7808C25.369 21.7048 25.1424 21.6306 24.9013 21.6306C24.5075 21.6306 24.1768 21.8269 23.9191 22.2123C23.6278 22.6453 22.746 23.6761 22.4735 23.984C22.4379 24.0247 22.3894 24.0732 22.3603 24.0732C22.3342 24.0732 21.8829 23.8874 21.7462 23.828C18.6181 22.4692 16.2436 19.2015 15.9181 18.6505C15.8716 18.5713 15.8696 18.5353 15.8692 18.5353C15.8807 18.4934 15.9858 18.3879 16.0401 18.3335C16.199 18.1764 16.371 17.9692 16.5375 17.7688C16.6164 17.6739 16.6953 17.5788 16.7729 17.4892C17.0144 17.2082 17.122 16.99 17.2466 16.7373L17.312 16.606C17.6164 16.0012 17.3564 15.4908 17.2723 15.326C17.2034 15.188 15.9721 12.2164 15.8412 11.9041C15.5264 11.1508 15.1104 10.8 14.5323 10.8C14.4787 10.8 14.5323 10.8 14.3074 10.8095C14.0335 10.821 12.542 11.0174 11.8825 11.4331C11.1831 11.874 10 13.2795 10 15.7512C10 17.9757 11.4117 20.0761 12.0178 20.8749C12.0329 20.8951 12.0605 20.936 12.1007 20.9947C14.4218 24.3845 17.3155 26.8967 20.2488 28.0686C23.0729 29.1966 24.4101 29.327 25.1704 29.327H25.1705C25.49 29.327 25.7457 29.3019 25.9713 29.2797L26.1144 29.2661C27.09 29.1796 29.2339 28.0687 29.7216 26.7135C30.1057 25.6461 30.207 24.4799 29.9514 24.0566C29.7764 23.7688 29.4747 23.624 29.0927 23.4406Z" fill="#00CB4C"/>
    <path d="M20.3551 0C9.5218 0 0.708282 8.74727 0.708282 19.4991C0.708282 22.9766 1.63893 26.3806 3.40192 29.3599L0.0275023 39.3138C-0.0353549 39.4994 0.0113984 39.7045 0.148671 39.8443C0.247762 39.9455 0.382178 40 0.519451 40C0.572048 40 0.625035 39.9921 0.676724 39.9756L11.056 36.6774C13.8962 38.1949 17.1063 38.996 20.3552 38.996C31.1874 38.9961 40 30.2497 40 19.4991C40 8.74727 31.1874 0 20.3551 0ZM20.3551 34.9343C17.298 34.9343 14.3371 34.0516 11.7919 32.3814C11.7063 32.3252 11.607 32.2964 11.507 32.2964C11.4541 32.2964 11.4011 32.3044 11.3496 32.3208L6.15023 33.9735L7.82868 29.0217C7.88296 28.8614 7.85582 28.6847 7.75582 28.5481C5.81764 25.8997 4.79309 22.7708 4.79309 19.4991C4.79309 10.987 11.7741 4.06182 20.3549 4.06182C28.9347 4.06182 35.9149 10.987 35.9149 19.4991C35.9151 28.0101 28.9349 34.9343 20.3551 34.9343Z" fill="#00CB4C"/>
  </symbol>


  <symbol id="icon-js" viewBox="0 0 80 80" fill="none">
    <path d="M75 5H5V75H75V5Z" fill="#FFCA28"/>
<path d="M47.5 63.2197L52.6538 59.8092C53.0578 61.0782 55.6155 64.092 58.8462 64.092C62.077 64.092 63.577 62.3275 63.577 61.1575C63.577 57.9695 60.278 56.8455 58.6935 56.3057C58.435 56.2177 58.2225 56.1452 58.077 56.082C58.0023 56.0495 57.8895 56.0062 57.7448 55.951C55.9825 55.2777 49.4807 52.7937 49.4807 45.5932C49.4807 37.6625 57.1345 36.7505 58.8655 36.7505C59.9977 36.7505 65.4422 36.8892 68.1537 41.9847L63.1537 45.4745C62.0577 43.2537 60.2365 42.5202 59.1155 42.5202C56.3463 42.5202 55.7692 44.5502 55.7692 45.4745C55.7692 48.0675 58.778 49.2297 61.3182 50.211C61.983 50.4677 62.6155 50.712 63.1537 50.9665C65.923 52.275 70 54.4165 70 61.1575C70 64.534 67.168 70.0005 60.0385 70.0005C50.4615 70.0005 47.923 64.2507 47.5 63.2197Z" fill="#3E3E3E"/>
<path d="M22.5 63.8967L27.8717 60.4882C28.2925 61.7565 29.9282 64.095 32.3012 64.095C34.6745 64.095 35.8892 61.6575 35.8892 60.4882V37.5005H42.4955V60.4882C42.6025 63.659 40.844 70.0005 33.083 70.0005C25.9475 70.0005 22.9811 65.7597 22.5 63.8967Z" fill="#3E3E3E"/>
  </symbol>

  </svg>
  