<svg aria-hidden="true" style="position: absolute; width: 0; height: 0; overflow: hidden;" version="1.1" xmlns="http://www.w3.org/2000/svg" xmlns:xlink="http://www.w3.org/1999/xlink">
<symbol id="icon-user" viewBox="0 0 39 39"  >
    <path d="M32.5 34.125V30.875C32.5 29.1511 31.8152 27.4978 30.5962 26.2788C29.3772 25.0598 27.7239 24.375 26 24.375H13C11.2761 24.375 9.62279 25.0598 8.40381 26.2788C7.18482 27.4978 6.5 29.1511 6.5 30.875V34.125M26 11.375C26 14.9649 23.0899 17.875 19.5 17.875C15.9101 17.875 13 14.9649 13 11.375C13 7.78515 15.9101 4.875 19.5 4.875C23.0899 4.875 26 7.78515 26 11.375Z" stroke="#FFC86A" stroke-width="2" stroke-linecap="round" stroke-linejoin="round"/>
</symbol>
<symbol id="icon-mail" viewBox="0 0 45 45"   >
    <path d="M40 5.875C40 3.19375 38.245 1 36.1 1H4.9C2.755 1 1 3.19375 1 5.875M40 5.875V35.125C40 37.8063 38.245 40 36.1 40H4.9C2.755 40 1 37.8063 1 35.125V5.875M40 5.875L20.5 22.9375L1 5.875" stroke="#FFC86A" stroke-width="2" stroke-linecap="round" stroke-linejoin="round"/>
</symbol>
<symbol id="icon-phone" viewBox="0 0 39 39"  >
    <path d="M35.75 27.495V32.37C35.7518 32.8225 35.6591 33.2705 35.4778 33.6852C35.2965 34.0998 35.0306 34.4721 34.6971 34.778C34.3636 35.084 33.9699 35.3169 33.5412 35.4619C33.1125 35.6069 32.6582 35.6607 32.2075 35.62C27.2071 35.0766 22.4039 33.368 18.1837 30.6312C14.2575 28.1363 10.9287 24.8075 8.43375 20.8812C5.68746 16.6419 3.97839 11.8153 3.445 6.79247C3.40439 6.34311 3.45779 5.89021 3.60181 5.46261C3.74583 5.03502 3.9773 4.64209 4.28149 4.30886C4.58569 3.97562 4.95593 3.70938 5.36866 3.52707C5.78139 3.34477 6.22755 3.2504 6.67875 3.24997H11.5537C12.3424 3.24221 13.1069 3.52148 13.7049 4.03571C14.3028 4.54995 14.6934 5.26408 14.8037 6.04497C15.0095 7.60508 15.3911 9.13691 15.9412 10.6112C16.1599 11.1929 16.2072 11.825 16.0776 12.4327C15.948 13.0403 15.6469 13.5982 15.21 14.04L13.1462 16.1037C15.4595 20.172 18.828 23.5404 22.8962 25.8537L24.96 23.79C25.4018 23.3531 25.9596 23.052 26.5673 22.9224C27.175 22.7928 27.8071 22.8401 28.3887 23.0587C29.8631 23.6089 31.3949 23.9905 32.955 24.1962C33.7444 24.3076 34.4653 24.7052 34.9806 25.3134C35.496 25.9216 35.7698 26.698 35.75 27.495Z" stroke="#FFC86A" stroke-width="2" stroke-linecap="round" stroke-linejoin="round"/>
</symbol>
<symbol id="icon-sub" viewBox="0 0 39 39"  >
    <path d="M6.5 11.375V6.5H32.5V11.375M14.625 32.5H24.375M19.5 6.5V32.5" stroke="#FFC86A" stroke-width="2" stroke-linecap="round" stroke-linejoin="round"/>
</symbol>
<symbol id="icon-text" viewBox="0 0 39 39"  >
    <path d="M34.125 16.25H11.375M34.125 9.75H4.875M34.125 22.75H4.875M34.125 29.25H11.375" stroke="#FFC86A" stroke-width="2" stroke-linecap="round" stroke-linejoin="round"/>
</symbol>
<symbol id="icon-drag" viewBox="0 0 39 39"  >
    <path d="M13 27.625L19.5 34.125M19.5 34.125L26 27.625M19.5 34.125V19.5M33.93 29.3963C35.3428 28.4028 36.4022 26.985 36.9546 25.3486C37.507 23.7122 37.5235 21.9424 37.0019 20.296C36.4802 18.6495 35.4475 17.2122 34.0536 16.1924C32.6597 15.1727 30.9771 14.6237 29.25 14.625H27.2025C26.7138 12.7203 25.7993 10.9513 24.5279 9.45114C23.2566 7.951 21.6615 6.75881 19.8627 5.96434C18.0639 5.16986 16.1084 4.79381 14.1432 4.86448C12.1781 4.93515 10.2546 5.4507 8.51752 6.37233C6.78046 7.29396 5.27511 8.59764 4.1148 10.1852C2.95449 11.7728 2.16946 13.603 1.8188 15.5379C1.46814 17.4727 1.56099 19.462 2.09037 21.3558C2.61974 23.2496 3.57184 24.9987 4.875 26.4713" stroke="#FFC86A" stroke-width="2" stroke-linecap="round" stroke-linejoin="round"/>
</symbol>


<symbol id="icon-map" viewBox="0 0 42 48"  >
    <g clip-path="url(#clip0_102_26)" filter="url(#filter0_d_102_26)">
        <path d="M36 16.6667C36 28.3334 21 38.3334 21 38.3334C21 38.3334 6 28.3334 6 16.6667C6 12.6884 7.58035 8.87313 10.3934 6.06008C13.2064 3.24704 17.0218 1.66669 21 1.66669C24.9782 1.66669 28.7936 3.24704 31.6066 6.06008C34.4196 8.87313 36 12.6884 36 16.6667Z" stroke="#FFC86A" stroke-width="3.5" stroke-linecap="round" stroke-linejoin="round"/>
        <path d="M21 21.6667C23.7614 21.6667 26 19.4281 26 16.6667C26 13.9053 23.7614 11.6667 21 11.6667C18.2386 11.6667 16 13.9053 16 16.6667C16 19.4281 18.2386 21.6667 21 21.6667Z" stroke="#FFC86A" stroke-width="3.5" stroke-linecap="round" stroke-linejoin="round"/>
        </g>
        <defs>
        <filter id="filter0_d_102_26" x="-3" y="0" width="48" height="48" filterUnits="userSpaceOnUse" color-interpolation-filters="sRGB">
        <feFlood flood-opacity="0" result="BackgroundImageFix"/>
        <feColorMatrix in="SourceAlpha" type="matrix" values="0 0 0 0 0 0 0 0 0 0 0 0 0 0 0 0 0 0 127 0" result="hardAlpha"/>
        <feOffset dy="4"/>
        <feGaussianBlur stdDeviation="2"/>
        <feComposite in2="hardAlpha" operator="out"/>
        <feColorMatrix type="matrix" values="0 0 0 0 0 0 0 0 0 0 0 0 0 0 0 0 0 0 0.25 0"/>
        <feBlend mode="normal" in2="BackgroundImageFix" result="effect1_dropShadow_102_26"/>
        <feBlend mode="normal" in="SourceGraphic" in2="effect1_dropShadow_102_26" result="shape"/>
        </filter>
        <clipPath id="clip0_102_26">
        <rect width="40" height="40" fill="white" transform="translate(1)"/>
        </clipPath>
        </defs>

</symbol>
<symbol id="icon-download" viewBox="0 0 42 42"  >
    <path d="M41 27.6667V36.5556C41 37.7343 40.5317 38.8648 39.6983 39.6983C38.8648 40.5317 37.7343 41 36.5556 41H5.44444C4.2657 41 3.13524 40.5317 2.30175 39.6983C1.46825 38.8648 1 37.7343 1 36.5556V27.6667M9.88889 16.5556L21 27.6667M21 27.6667L32.1111 16.5556M21 27.6667V1" stroke="#FFC86A" stroke-width="2" stroke-linecap="round" stroke-linejoin="round"/>
</symbol>

</svg>
